/* XPM */
static char *_855fd9150704001e9fd51d487a4ea17ZHgQHKOp1oFlcotv[] = {
/* columns rows colors chars-per-pixel */
"50 50 243 2 ",
"   c #2E77A8",
".  c #3478AC",
"X  c #297BB5",
"o  c #357CB5",
"O  c #517899",
"+  c #457EAA",
"@  c #407FB4",
"#  c #3C84B3",
"$  c #3383BD",
"%  c #3B84BC",
"&  c #3B89BA",
"*  c #3A88AF",
"=  c #4B83A9",
"-  c #448ABC",
";  c #4788B7",
":  c #558BB5",
">  c #5A8BB1",
",  c #538CB9",
"<  c #4D94BD",
"1  c #4891B7",
"2  c #5292BC",
"3  c #5C93BD",
"4  c #6695B9",
"5  c #2E85C2",
"6  c #3286C2",
"7  c #368BC5",
"8  c #3B8DC4",
"9  c #348BC9",
"0  c #3B8DCA",
"q  c #3887C2",
"w  c #3D92CB",
"e  c #3990C9",
"r  c #3B94D1",
"t  c #3B9BD6",
"y  c #2E96D3",
"u  c #438BC2",
"i  c #468EC8",
"p  c #498CC5",
"a  c #518EC4",
"s  c #4B92C4",
"d  c #4293CC",
"f  c #4C95CC",
"g  c #4499CE",
"h  c #4C9ACD",
"j  c #4697C4",
"k  c #5495C5",
"l  c #5E95C4",
"z  c #5B9AC4",
"x  c #539BCC",
"c  c #5B9CCD",
"v  c #5498C7",
"b  c #4495D1",
"n  c #449BD4",
"m  c #4B9DD4",
"M  c #449CD9",
"N  c #4B9EDA",
"B  c #4E96D0",
"V  c #539DD3",
"C  c #5C9DD3",
"Z  c #5997D2",
"A  c #639BC4",
"S  c #6B9BC5",
"D  c #649BCA",
"F  c #6B9DC8",
"G  c #719FC8",
"H  c #56A1CB",
"J  c #4CA2D4",
"K  c #4DA3DC",
"L  c #49A4DB",
"P  c #53A3D6",
"I  c #5BA3D4",
"U  c #5BAAD5",
"Y  c #53A5DB",
"T  c #5AA5DB",
"R  c #54AADC",
"E  c #5BACDD",
"W  c #56AAD6",
"Q  c #5CB2DE",
"!  c #64A4CD",
"~  c #6AA3CD",
"^  c #6DA5C8",
"/  c #74A9CB",
"(  c #7CA9CD",
")  c #75A3C9",
"_  c #64A5D4",
"`  c #6AA5D3",
"'  c #64ABD4",
"]  c #6BABD5",
"[  c #62A7D9",
"{  c #63ACDB",
"}  c #6CACDA",
"|  c #6BA4D9",
" . c #73A7D2",
".. c #74A9D5",
"X. c #7DABD4",
"o. c #73AEDC",
"O. c #79AEDA",
"+. c #64B2DC",
"@. c #6AB3DD",
"#. c #6DBDDE",
"$. c #74B3DC",
"%. c #7CB4DB",
"&. c #7BBADA",
"*. c #4CA8E4",
"=. c #53A6E1",
"-. c #55ACE3",
";. c #5BADE4",
":. c #55ACE9",
">. c #5BAEEB",
",. c #5AA6E0",
"<. c #57B1E5",
"1. c #5CB2E4",
"2. c #56B1E9",
"3. c #5CB4EB",
"4. c #5FB8E4",
"5. c #5CB5F2",
"6. c #5FB9F0",
"7. c #63ADE3",
"8. c #69ADE2",
"9. c #63B4E4",
"0. c #6BB4E3",
"q. c #65B8E5",
"w. c #6DBBE4",
"e. c #63B5EB",
"r. c #6AB5EB",
"t. c #65BAEB",
"y. c #6BBDEC",
"u. c #73B5E3",
"i. c #7CB5E3",
"p. c #72BBE4",
"a. c #79BBE5",
"s. c #72B5EB",
"d. c #73BCEB",
"f. c #7BBCEB",
"g. c #78B7EC",
"h. c #63B6F1",
"j. c #65BCF2",
"k. c #6ABDF2",
"l. c #69BFFA",
"z. c #65BEF8",
"x. c #7BBDF3",
"c. c #71BBF2",
"v. c #70AFE4",
"b. c #6DC1ED",
"n. c #6AC1E7",
"m. c #73C3E4",
"M. c #74C3ED",
"N. c #7BC4EC",
"B. c #77C9ED",
"V. c #7ACBED",
"C. c #7BC3E5",
"Z. c #6DC2F2",
"A. c #6CC4FC",
"S. c #6AC5FB",
"D. c #72C4F2",
"F. c #7BC4F3",
"G. c #76C9F3",
"H. c #7BCCF3",
"J. c #73C5FA",
"K. c #7BC6F9",
"L. c #7BCCFB",
"P. c #74CAFD",
"I. c #7ED1F5",
"U. c #7DD1FD",
"Y. c #7FDBFF",
"T. c #86ACCA",
"R. c #8BB3CC",
"E. c #81ACD4",
"W. c #8BB3D4",
"Q. c #81B3DC",
"!. c #8DB6DA",
"~. c #8DB9DC",
"^. c #86B1D5",
"/. c #94BBDB",
"(. c #9ABDDC",
"). c #94B9D8",
"_. c #90B2CD",
"`. c #A2BDD6",
"'. c #85BBE4",
"]. c #8CBCE4",
"[. c #83BEEA",
"{. c #85B9E7",
"}. c #94BEE1",
"|. c #81BEF5",
" X c #9CC3DD",
".X c #A4C2DD",
"XX c #ACC5DB",
"oX c #83C3ED",
"OX c #8BC2EB",
"+X c #89C7EA",
"@X c #95C3E5",
"#X c #93C5ED",
"$X c #94C9EE",
"%X c #9CC9EC",
"&X c #9DC3E5",
"*X c #83C4F3",
"=X c #8BC5F2",
"-X c #84CBF5",
";X c #8CCAF4",
":X c #83C6FB",
">X c #84CCFB",
",X c #8BCDFD",
"<X c #88C5FB",
"1X c #93CAF3",
"2X c #9BCCF3",
"3X c #93CAF8",
"4X c #83D2F4",
"5X c #83D2FE",
"6X c #8BD3FD",
"7X c #83D9FE",
"8X c #8BDBFD",
"9X c #93D2FF",
"0X c #9BD3FD",
"qX c #91DCFF",
"wX c #9BD5F8",
"eX c #99D0EE",
"rX c #A1CBEB",
"tX c #A4C7E5",
"yX c #B2CEE8",
"uX c #A5D1EC",
"iX c #ACD1EC",
"pX c #A9D6E9",
"aX c #B5D5ED",
"sX c #A0CEFF",
"dX c #A3D2F4",
"fX c #A2D5FD",
"gX c #A5DAFE",
"hX c #ABDBFD",
"jX c #ABD7F5",
"kX c #B4DCFC",
"lX c #B9DAF5",
"zX c #9AE1FF",
"xX c #92E0FF",
"cX c #A9E4FE",
"vX c #B4E2FF",
"bX c #BDE1FD",
"nX c #B3EAFF",
"mX c #B3E1F1",
"MX c #B9F1FF",
"NX c #ADF1FF",
"BX c #C2DDF6",
"VX c #C6EBFF",
"CX c #C7FAFF",
/* pixels */
"(.}.kXsX3X3Xp o Z ,X|.g.C x.<X7.q 8 m U.A.5.t e :.k.f [ i.~ $XnX].'.Q.dXvXrX/.T.`.XXBX`.}.].D S }.W.",
"yX).}.hX0X|.o . ; 8.<Xg.s.<Xc.T ,.P 8 A.U.r M w >.t.Y s f._ wXOXQ.#X].2XdX~.(.yX`.yXBXXX!.X.l D !.T.",
"VX(.T.2X3X_ o ; ; c ,Xa.<X>XT P J.k.8 1.U.5 t e =.>.;.V p.} 0Xu.%.1X'.'.{.( /.bX`.aXBXtX!.X. .i.!.W.",
"aX).W.fXnXD @ p c } oX] ,Xx.I I K.7XR =.A.t L 9 9 =.e.K.I } N.} *X[.u.%... .@XuX`.aXlXtXW.O.O.{.E.!.",
"aX.XtX+XnXz I ] N.*X&.] 6X$.9.U K.5Xt.1.e.3.r *.n M 2.5XV V [ T >X} 8.|.! ` 2X!.rXlXiX/.X.S _ ..Q.}.",
"CXpXpX4 ;X! f.qXoX6X$.a.,Xw.p.U L.q.1.1.K :.5 5.5.w :.j.;.V 9.0.s.x 8.K.x D ;X/ rXkXtXW.G 4 D ~ Q.!.",
"aXpXdX^ wX4Xw.N.N.oXC.;XoXm.+.U M.E E <.Y J t -.S.t L h.j.7.t.k.E Y ,.t.T C } A }.hX}.( S 3 } o.O.X.",
"yXuX@X^ =X0X{ s.s.p.;X6Xw.F.T E 9.y.y.Q 3.K 6.L S.3.*.P.:.h.M ;.>.>.m Y r.E c 2 ].fX].) 3 , o.g.| D ",
"R.uX%X^ i.K.T 8.- s { N.F.E f 7.y.b.b.4.Q <.6.6.5.S.L 2.L <.2.2.3.-.2.N K e.7.u.gXOXA 4 A o.f.{ D D ",
"4 ).> ~ ,X8.T % p f { s.K.K.r.t.t.y.b.4.1.3.<.<.A.A.2.3.<.2.6.2.<.=.3.:.:.h.r.x.9X! : oX9Xi.7.v l k ",
"O rX#X3Xf.p Y ,.x.0.0.K.,XK.k.;.E 4.6.q.t.b.4.<.A.S.2.R 2.<.S.2.3.=.3.2.:.:.Y 0.@.3 z ;XoXs f 7.s a ",
"T.kXCX[.[ s.P D.qXc.0.6X8Xr.>.e.4.Q 4.4.b.b.4.Q Z.b.3.L 1.L Z.3.h.-.3.2.K M g E N.I , } { v V V C C ",
"T.E.cX3 v 6XQ xXK.9.+.6X5X9.Z.Z.y.Z.t.b.b.Z.4.R Z.D.Z.Q t.R Z.j.t.-.3.2.-.*.Y k.D.u.{ a.p.E ;.m Y Z ",
"bXvXCX+X< #   +.d.d.w.-Xd.9.7Xn.b.n.n.6.b.D.n.4.P.U.D.b.y.4.D.b.t.;.3.<.-.-.;.Z.0.{ w.:Xs.V Y ;.P f ",
"mXmXcXwXC.v < Q H.H.p.M.@.+.Y.Q 4.6.4.n.b.G.G.b.b.H.q.y.q.y.Z.t.y.9.4.-.L 2.R e.r.v ; I 7.P m 8 Y V ",
"pXpXMXzXC.+.H Q H.0.H #.@.+.7Xq.n.Z.n.Z.b.D.n.n.@.y.H q.9.Z.y.9.t.1.t.*.R 3.-.1.P h j h h w b $ % % ",
"R.eXMX&.H W R D.U.P P r.@.M.6Xm.n.n.b.M.M.D.M.b.b.D.q.t.t.q.Z.t.3.3.t.3.2.-.<.3.e.m 8 8 d d 7 $ . @ ",
"R. XeX&.j j R Y.S.w E 5XH.a.4X4Xn.m.M.B.D.G.G.Z.G.U.Z.Z.y.t.k.e.3.6.3.3.-.<.1.4.J R -.R n 0 6 $ Z | ",
" XMXpXC.1 W S.Y.A.K r.qX-X@.m.C.m.M.G.G.G.G.G.G.U.U.Z.D.Z.e.j.1.6.e.3.1.-.-.4.t.1.1.;.g 9 d =.e.r.s.",
"(.nX&.m.* j <.R 1.K e.K.d.N.4XC.M.B.B.G.H.H.G.H.L.L.y.Z.Z.t.t.t.j.h.3.;.R <.1.j.1.t.R n b =.>.=.7.[ ",
"bXdX^ NXV.W 3.Z.-.Y r.F.p.p.H.V.N.B.B.G.G.H.G.P.B.Z.q.Z.Z.t.j.t.k.j.h.1.-.Q 3.y.t.t.-.m M =.=.i V x ",
"vX@X^ NX7XQ <.<.>.;.J.8Xm.' @.4Xm.B.G.V.H.G.G.G.D.Z.y.Z.D.q.Z.t.k.k.h.3.1.<.1.t.t.j.t.=.N L N N i u ",
"hX$XoXzXM.W 3.R K P r.5XH.#.m.xXM.M.V.V.V.H.H.G.G.Z.t.G.Z.q.t.t.D.A.k.t.9.1.1.q.J -.Z.J.k.>.N b o o ",
"nX'.C.zXb.w 1.A.e.e.0.r.C.V.V.m.V.V.G.H.H.H.H.G.G.b.t.D.D.4.t.y.k.D.D.k.9.Q 9.e.t.<.-.3.3.:.N M b d ",
"wX~ -X-X8XE L R k.D.K.E @.qX4X#.V.V.B.B.B.I.G.G.G.G.D.G.Z.Z.Z.b.Z.y.9.9.k.D.9.9.Y m 3.K 9 9 6 9 6 q ",
"{.: c >XU.1.& J P ;.>X5XH.N.m.V.I.V.I.I.I.I.I.G.G.B.B.b.Z.b.b.b.r.r.9.9.c.y.q.9.E P -.m b =.M 6 5 o ",
"o.@ . I Z.b.L n P P L.zX6Xw.@.8X7XI.I.V.H.I.I.I.G.b.b.b.b.b.b.b.y.D.s.q.b.b.9.t.9.R >.b d =.M 5 0 0 ",
"| c C - t.Q 6.J y.E y.>X4XN.#.8X4XV.V.B.B.H.I.G.G.G.G.Z.b.b.Z.Z.D.F.D.y.d.q.9.q.b.Z.K.5.N >.:.:.b b ",
"Z *XqX7.t.w Q R y.0.d.s.m.8XV.V.V.C.B.B.V.V.I.I.B.G.G.b.b.b.b.S.D.-XD.b.M.w.+.t.y.e.J.Z.=.:.5.l.b b ",
"8.<Xx.k.4.L J 6.P t.L.m.V.xX4Xm.V.V.B.V.I.I.I.I.B.G.G.G.b.b.b.b.M.F.f.d.d.y.9.w.9.m J L M M r M 0 0 ",
"g.|.V P 2.-.4.D.W q.I.V.m.V.V.V.V.B.V.I.I.I.I.G.b.G.I.G.D.b.n.Z.D.F.d.d.M.w.q.t.y.P K J b M 9 5 X X ",
"C :XF.h t.L b.n.b.q.M.m.#.m.#.8XV.V.V.I.Y.I.G.B.B.I.U.U.G.D.b.D.F.F.M.w.M.d.@.0.q.E ;.J b M r 6 q q ",
"c ] v -X+.G.G.q.n.G.b.m.n.B.7Xm.V.H.V.N.G.-X>XH.G.D.B.y.M.D.D.d.q.d.d.w.p.@.+.' I w.E P J b n 9 $ o ",
"1 ] $.U ' qX4XW @.b.M.I.b.#.V.B.H.4X4XH.V.H.H.G.4XH.D.M.M.B.M.t.t.D.b.w.M.u.] @.w.5XK.y.e.Y :.L 0 % ",
"1 ! +X' d.6X@.[ n.@.q.H.V.w.V.V.G.H.H.B.G.H.I.H.H.G.M.d.D.K.B.t.y.D.Z.d.m.p.} } w.,XF.9.m $ 7 w ,.B ",
"= O.=XoX9X;XH +.F.@.U m.-XH.4XM.V.H.H.G.H.H.H.G.M.M.M.b.H.K.D.9.k.D.Z.y.M.w.{ @.a.H.7.m 8 X 6 7 B q ",
"> 0X|.3X3X9X| [ :Xs.[ 0.p.*X6Xd.-XU.4XI.H.H.H.B.Z.D.D.G.L.L.D.e.t.k.t.y.d.0.' 0.M.s.I f g 7 0 w .   ",
"'.vX..=X|.[.c v F.*Xs.p.0.s.;XN.G.H.U.H.L.5XL.L.K.H.L.L.L.L.D.t.j.h.e.e.t.+.E w.w.0.x P T d 8 $ u - ",
"#XfXi.{.O.D - [ g.x.c.:Xd.8.F.F.y.M.G.G.H.U.U.H.L.U.L.L.G.K.Z.y.t.3.>.1.q.{ [ w.p.d.{ r.c.N g d B p ",
"S #XhX .l | ` x.d.8.0.6X>Xs.F.F.B.G.G.D.D.b.y.q.D.L.P.D.k.y.Z.Z.6.5.-.1.e.{ { s.{ u.7.d.c.T Y 7.B u ",
"%.fXcX] o.,X} F.zXd.[ 7X5X9.d.0.9.b.b.n.Z.K.M.1.Z.y.9.P J.9.1.t.5.N l.;.9.{ [ [ ,Xv [ 8.s V T i B i ",
"+ OXnX0Xf.1 ; B.5X0.e.8X5Xy.y.q.Q q.w.y.y.y.q.Q K.L.y.R e.e.9.e.l.*.e.h.7.T v u._ ; v :X8.# Z V p p ",
"= %./ ^ [.! 1 - x j 9.H.G.b.9.q.9.t.y.q.4.e.9.1.Z.L.e.R Y e.e.t.>.>.=.e.T 0._ *X*X_ ; ;X9Xc 7.Z p p ",
"/ %XQ.3 a.oX+.v * & @.b.b.w.W +.b.b.y.t.1.W E 1.t.t.R ;.P e.;.t.L 5.>.V P s.o.u.cXoX: A i.| } c a a ",
"uXeXuX^ 1X=X^ a.U ' H.N.M.w.H W M.t.9.q.E P R E J.3.P h.;.;.K >.=.5.e.B [ [ | 2 3X1X..: , D _ o.S l ",
"vXrXrX> #XfX$.+XoX:X,XH.H.p.U { t.1.E Q R J J R Z.Y R J.j.;.E e.>.N =.7.0.k ` l OX#X3XX.l 3 l {. .S ",
"aXkXkX4 @X'.'.0X=X;Xa.C.-Xa.] +.D.e.E 1.Q J J R <.b >.Z.t.=.e.l.h.N ,.c.7.c i...#X2X#X{.S : 3 S ( E.",
"bXiX XW.hX3 z g.-X:X` u.;Xu.@.{ 7XZ.1.t.1.K n R L b t.h.>.h >.7.c.9.r.,Xx ` 1XQ.#XkX%X}.G : X.S E.W.",
"bXtX_.lXvX` u g Y 7.;Xa.;XoX{ x d.6X1.R U.r L t t :.5.c.h.m d.} <Xf.| u.o.~ 1X%X%XiXbX).^.G F  .!.}.",
"lX).T.iXgXc $ 9 M -.*Xi.1X*X7.P p.>XW J K.w t y t *.>.h.t.W oXO.=X1Xi.[.O.` dXjXtXiXVX).!.( ..Q.X.E."
};
