/* XPM */
static char *_cc1fd83b10943dcc9cc2c64e0d78a14AhIc8jcxhHQNeguy[] = {
/* columns rows colors chars-per-pixel */
"50 50 231 2 ",
"   c None",
".  c #0E0B06",
"X  c #120E08",
"o  c #1B130B",
"O  c #1B1607",
"+  c #1C1A14",
"@  c #23190B",
"#  c #2D1C0C",
"$  c #261709",
"%  c #341D0B",
"&  c #311F07",
"*  c #261E15",
"=  c #34220D",
"-  c #3C240D",
";  c #3F290E",
":  c #292718",
">  c #332314",
",  c #3C2712",
"<  c #3D2A13",
"1  c #35291D",
"2  c #3F311F",
"3  c #182420",
"4  c #363629",
"5  c #372F23",
"6  c #43290D",
"7  c #472A0E",
"8  c #59350E",
"9  c #442611",
"0  c #442B12",
"q  c #492D13",
"w  c #452E19",
"e  c #4C341A",
"r  c #4B3B1C",
"t  c #47361A",
"y  c #543513",
"u  c #5B3415",
"i  c #5C3A15",
"p  c #53351D",
"a  c #58381C",
"s  c #512F10",
"d  c #623513",
"f  c #653915",
"g  c #6B3A14",
"h  c #643C1A",
"j  c #6A3F1A",
"k  c #703F19",
"l  c #473A23",
"z  c #563A22",
"x  c #403834",
"c  c #603E23",
"v  c #3C413D",
"b  c #6B431C",
"n  c #73431B",
"m  c #7B451C",
"M  c #7B491D",
"N  c #754015",
"B  c #7D501F",
"V  c #4B452B",
"C  c #53422D",
"Z  c #59452A",
"A  c #4B4A3D",
"S  c #4A4037",
"D  c #5A4A34",
"F  c #5A5B3D",
"G  c #634425",
"H  c #644C2C",
"J  c #6A462A",
"K  c #7B4C22",
"L  c #764824",
"P  c #6C532B",
"I  c #615029",
"U  c #77532B",
"Y  c #654B31",
"T  c #684836",
"R  c #685536",
"E  c #765333",
"W  c #755C35",
"Q  c #745D3B",
"!  c #7A5737",
"~  c #7B4F30",
"^  c #77653E",
"/  c #524D47",
"(  c #665944",
")  c #785C41",
"_  c #796547",
"`  c #766D51",
"'  c #565F68",
"]  c #70706E",
"[  c #844A1D",
"{  c #8B4F1E",
"}  c #89511E",
"|  c #93561E",
" . c #844C22",
".. c #894C23",
"X. c #855325",
"o. c #8C5321",
"O. c #85552A",
"+. c #8A592A",
"@. c #945823",
"#. c #9C5C22",
"$. c #965725",
"%. c #835B33",
"&. c #875836",
"*. c #934E21",
"=. c #A25D26",
"-. c #AA5D25",
";. c #99612B",
":. c #83633B",
">. c #8D6435",
",. c #93643C",
"<. c #9D6A3C",
"1. c #966737",
"2. c #926C36",
"3. c #A46225",
"4. c #AB6224",
"5. c #AC652B",
"6. c #AC6C2D",
"7. c #A36529",
"8. c #B26A2C",
"9. c #B7732E",
"0. c #A86A34",
"q. c #A97539",
"w. c #B47435",
"e. c #B2743A",
"r. c #BA7D3D",
"t. c #BC7D36",
"y. c #B16F2E",
"u. c #845F40",
"i. c #8C6B49",
"p. c #876845",
"a. c #946C4B",
"s. c #956C43",
"d. c #897348",
"f. c #9A744D",
"g. c #977649",
"h. c #856953",
"j. c #887857",
"k. c #927452",
"l. c #9C7C59",
"z. c #936B51",
"x. c #A46B45",
"c. c #A47D4A",
"v. c #A57947",
"b. c #B77D44",
"n. c #A47D54",
"m. c #A27A5C",
"M. c #917E66",
"N. c #C88139",
"B. c #8E835E",
"V. c #95875C",
"C. c #A6814D",
"Z. c #BA8648",
"A. c #A88457",
"S. c #B98957",
"D. c #8F8469",
"F. c #938465",
"G. c #9C8D69",
"H. c #9B886A",
"J. c #9A8B7A",
"K. c #A88A66",
"L. c #B08D60",
"P. c #A89069",
"I. c #B99767",
"U. c #A38C75",
"Y. c #A99977",
"T. c #BC9D75",
"R. c #B59874",
"E. c #BEA47E",
"W. c #BDAB77",
"Q. c #C28B4D",
"!. c #C78948",
"~. c #C99553",
"^. c #C3935B",
"/. c #CC9B58",
"(. c #CD964F",
"). c #D5A45C",
"_. c #C59C66",
"`. c #CA9B70",
"'. c #D6A467",
"]. c #C6A57A",
"[. c #D0AE75",
"{. c #857E81",
"}. c #969187",
"|. c #868B89",
" X c #A89987",
".X c #B19C83",
"XX c #A49C97",
"oX c #BAAB84",
"OX c #B6A38B",
"+X c #ABA39A",
"@X c #B5A998",
"#X c #BDB09C",
"$X c #B4AEA6",
"%X c #BDB5A8",
"&X c #B2ADAD",
"*X c #C5AD85",
"=X c #CBAD8B",
"-X c #C8AA87",
";X c #C9B68D",
":X c #DABB8C",
">X c #C4AC96",
",X c #C5B293",
"<X c #CAB393",
"1X c #C4B49A",
"2X c #CCB69A",
"3X c #CDBA9B",
"4X c #D2B493",
"5X c #D4BB9B",
"6X c #D8BD9F",
"7X c #E1BC91",
"8X c #C3BAA4",
"9X c #C7BBA9",
"0X c #D3BEA2",
"qX c #D5BFA9",
"wX c #C9BFB4",
"eX c #DFC59F",
"rX c #E7CB9F",
"tX c #D6C2A5",
"yX c #DAC1A3",
"uX c #D6C4AC",
"iX c #DBC8AA",
"pX c #CBC2B3",
"aX c #CAC3BC",
"sX c #D9C8B6",
"dX c #E6CEAB",
"fX c #EBD4AC",
"gX c #EBDABA",
"hX c #F0DDBB",
"jX c #F1E1B7",
"kX c #D8D1C7",
"lX c #E3D8C6",
/* pixels */
"                                                                                                    ",
"                                                                                                    ",
"                                                                                                    ",
"                                                                                                    ",
"                                                                                                    ",
"                          @X1X%X8XwXpXpX%X                                                          ",
"                       XoXE.].*X;X3XtXuXsXsXwX                                                      ",
"                    U.k.^ :.i.C.L.R.,X0X0X0XqXsXkXkX                                                ",
"                  k.! p y y b ! f.P.*X5X5X5XyXyXpXlXkX                                              ",
"                j.z 9 - 7 q s i U A.T.E.*X4X6XqXqXuXlX9X                                            ",
"                Q = % 0 u i u h h O.A.R.*X;X5X5X0X0XsXaX                                            ",
"              j.p # = q h L n g f u L f.T.*XE.=X5X2X6XpX                                            ",
"              p.- = 0 7 s 8 u j d f j %.L.-X-X-X5X2X<XpX                                            ",
"            M.c & ; - ; ; % # 9 a k n K m.T.-X<X2XtX>X9X                                            ",
"            j.w % 7 ; , % > @ o > L L j a.R.=X3X3XtX2X8X                                            ",
"            _ > % q 9 , # @ o . o ! &.n ,.].=XyXtX1X1X9X                                            ",
"            T - = 0 ; = # o . X 5   x.O.&.-X2X0XqX>XOXqX                                            ",
"            ( 9 6 y 6 = @ X . *     m.<.L L.4X<X>X>XY.%X                                            ",
"            ( 9 8 b y = O X *         f.j k.=X>X X.XOX                                              ",
"            _ q b B i < @ +           m.j i.-XOXJ.}.+X                                              ",
"              p b o.B e O :           U.! _ K..XXX+X                                                ",
"              Z 8 $.#.N % *             H.M.J.@X+X                                                  ",
"              ) u k 3.3.L z                                                                         ",
"                T g @.9.0.0.                                                                        ",
"                  %.+.w.N.b.n.                                                                      ",
"                    ,.$.r.!.v.a.                        J p.                                        ",
"                      i.0.b.b.>.                        x.O.E                                       ",
"                        z.0.w.5.%.                #XiX;Xm.x.~ J.wX&X}.  n.                          ",
"            A (           i.<.5. .              $XgXjXfX7X(.<.x ] +X}.z.r.g.                        ",
"            1 x             ) O.K Y               0X6XdXhX[.L./ 3 ' ] S <.-X+X                      ",
"            H U         5 4   G j p                   P.V.I._.U.|.{.x > :.>X+X]                     ",
"            h.a.i.      1 l   z u 1                   J a :.T.c.p.! w d c / ]                       ",
"              h.,.%.z     D l > 9 @ +               l.0. .p D f.c.+.{ -.+.V I                       ",
"                  G w = > 1   J b W %.l.K.          m.x.~ u z q H f.v.t.9.+.b P     ) D S           ",
"                      > > # E b.r.Q.~.Q.S.A.A.      h.s.c &.U < - c E g.S./.I./.)./.2.V             ",
"                      ~ J i K 0.w.e.q.;.$.;.1.S.R.  z.&.T J z D u.! E Q q.A._.[.;XW.F.`             ",
"                      w.8.+.B o.} M f y 8 8 B 6.^.T.c.Y p w k.K.L.L.A.A.n.:.^ I D.v / /             ",
"                    S.w.4.3.@.} N f f d b n @.y.(.`.! , % < W _ p.i.d.2.p.W P R F : 4 4             ",
"                  v.6.5.5.8.6.@.[ [ M n N } 7.t.).~.d = l ` Y p D Z z r r t 2 l V V (               ",
"                  q.=.-.8.7.3.@.{ [ m M [ | 6.Z.'.7X) z G.].n.C.I.I.A.g.g.d.^ P F ` j.              ",
"                S.q.#.4.4.=.*.$.} M M [ } q.S.[.rXjXtXY.W.Y._ c.'.'.'.~.Z.C.g.W Q B.                ",
"                m.0.=.3.#.*...[ b M } | 2.:XtXdXfXeXtXtXY.` D ) <.!.Q.r.<.2.:.^ ^ B.                ",
"                  1.| #.#.[ n n M [ | +.2.W.#XW.Y.G.G.G.D.j.    R P +.U I P W ^ B.                  ",
"                    ~ O. .m g n M B %.B.B.D.V.B.j.                  Z V V D ( `                     ",
"                                                                                                    ",
"                                                                                                    ",
"                                                                                                    ",
"                                                                                                    ",
"                                                                                                    ",
"                                                                                                    "
};
