/* XPM */
static char *cb7cb35fbb96474af41f21f39f424ad4V1G26a6djpJnWzhK[] = {
/* columns rows colors chars-per-pixel */
"50 50 216 2 ",
"   c None",
".  c #331B11",
"X  c #3D2518",
"o  c #383327",
"O  c #4B2D1B",
"+  c #47291B",
"@  c #58351A",
"#  c #653C19",
"$  c #793E1A",
"%  c #4D3529",
"&  c #433A2D",
"*  c #4D3B2B",
"=  c #4C3324",
"-  c #513420",
";  c #5C3D26",
":  c #543E2A",
">  c #443C34",
",  c #493E35",
"<  c #462C24",
"1  c #613E22",
"2  c #7A461D",
"3  c #55422B",
"4  c #4A4036",
"5  c #4C443C",
"6  c #474137",
"7  c #5B4C39",
"8  c #584639",
"9  c #62442C",
"0  c #674D2A",
"q  c #774E28",
"w  c #78522B",
"e  c #604634",
"r  c #624B34",
"t  c #684A36",
"y  c #6C533B",
"u  c #6B5337",
"i  c #7B5836",
"p  c #745A3C",
"a  c #775739",
"s  c #7F6338",
"d  c #4F4741",
"f  c #544C44",
"g  c #5A4E44",
"h  c #564F49",
"j  c #5C534B",
"k  c #5B5247",
"l  c #5B5651",
"z  c #5F5951",
"x  c #664F42",
"c  c #635442",
"v  c #62554D",
"b  c #62584E",
"n  c #6D5D4B",
"m  c #6B5745",
"M  c #725D44",
"N  c #75584A",
"B  c #635B53",
"V  c #695D52",
"C  c #715E50",
"Z  c #74624D",
"A  c #7D664D",
"S  c #65615B",
"D  c #6C635B",
"F  c #6C6358",
"G  c #746454",
"H  c #7A6353",
"J  c #7A6A55",
"K  c #73655C",
"L  c #74695E",
"P  c #7C6B5B",
"I  c #78675A",
"U  c #746B62",
"Y  c #786E65",
"T  c #7C7266",
"R  c #7C746B",
"E  c #7B756E",
"W  c #736F6A",
"Q  c #94531F",
"!  c #885624",
"~  c #925B2B",
"^  c #9A5B2A",
"/  c #895C38",
"(  c #8A4B21",
")  c #94652D",
"_  c #946433",
"`  c #95693B",
"'  c #8C683E",
"]  c #A5712F",
"[  c #A56B32",
"{  c #AB7235",
"}  c #AB753B",
"|  c #A57433",
" . c #B57D38",
".. c #AB6A2A",
"X. c #8B584C",
"o. c #886A4B",
"O. c #906C42",
"+. c #956F48",
"@. c #9E6F41",
"#. c #8D7147",
"$. c #967649",
"%. c #836E53",
"&. c #8C6A5A",
"*. c #887458",
"=. c #987A55",
"-. c #A26E46",
";. c #A67A43",
":. c #A57E54",
">. c #A37A5A",
",. c #B67746",
"<. c #81766D",
"1. c #81786F",
"2. c #8D7D6C",
"3. c #967A66",
"4. c #847B73",
"5. c #887E75",
"6. c #857F78",
"7. c #937870",
"8. c #A17A60",
"9. c #B98737",
"0. c #C58B3B",
"q. c #D18839",
"w. c #CA973C",
"e. c #E09539",
"r. c #99875E",
"t. c #A88347",
"y. c #B98945",
"u. c #AA8251",
"i. c #A5835B",
"p. c #AB875C",
"a. c #A68657",
"s. c #B68B56",
"d. c #B79154",
"f. c #BEA45E",
"g. c #8C847B",
"h. c #878178",
"j. c #92877D",
"k. c #91887F",
"l. c #9F917F",
"z. c #90826D",
"x. c #A58B68",
"c. c #A99368",
"v. c #B79968",
"b. c #A28C71",
"n. c #AB9375",
"m. c #A5957D",
"M. c #B39D7C",
"N. c #B49C75",
"B. c #BDA57B",
"V. c #CD9C46",
"C. c #C89549",
"Z. c #D89A47",
"A. c #C48F52",
"S. c #C49454",
"D. c #C4995A",
"F. c #D2A246",
"G. c #D4A34F",
"H. c #D6A859",
"J. c #CAA352",
"K. c #E4BA4D",
"L. c #E0B15B",
"P. c #E2A844",
"I. c #C49C67",
"U. c #CAA66A",
"Y. c #D3AC68",
"T. c #D5B36C",
"R. c #C7A876",
"E. c #D2AC7A",
"W. c #D1B27E",
"Q. c #E9C868",
"!. c #E8D57C",
"~. c #8B8782",
"^. c #938B82",
"/. c #948A82",
"(. c #9B9187",
"). c #9D958B",
"_. c #97968B",
"`. c #9E9992",
"'. c #A2978D",
"]. c #A29A8E",
"[. c #B49F82",
"{. c #A39C93",
"}. c #BCA889",
"|. c #AAA196",
" X c #ACA59B",
".X c #A6A49C",
"XX c #B2AA9F",
"oX c #BBB18E",
"OX c #AFAAA3",
"+X c #A8A5A1",
"@X c #B4ACA2",
"#X c #BBB4AC",
"$X c #BAB5AC",
"%X c #BEB9B0",
"&X c #C19285",
"*X c #C4AE8A",
"=X c #C9AD85",
"-X c #CDB689",
";X c #C9B696",
":X c #D5BC95",
">X c #D3B78A",
",X c #C2BCB3",
"<X c #C0B9AD",
"1X c #DDC69A",
"2X c #DEC289",
"3X c #E6C783",
"4X c #E5C998",
"5X c #EED09C",
"6X c #C5C1B7",
"7X c #C6C2B9",
"8X c #D9CBB1",
"9X c #E4CEA6",
"0X c #ECD4A9",
"qX c #E7D7B8",
"wX c #F5D9A4",
"eX c #F9E6C3",
/* pixels */
"                                                                                                    ",
"                                                                                                    ",
"                                                                                                    ",
"                                                                            $X X@X%X%XOX            ",
"                                                                        +X{.g.g./.). X%X<X          ",
"                              I.                                      .X`.^.4.4.E g._.|.#X%X        ",
"                    ,   B.N.-. .+.                                  {.{.~.~.g.g.g.g.h.l.|.|. X      ",
"                    8   U.I.R.U.s.d.                              _.{.g.1.5.5./.^.j.g.j.].].].|.    ",
"                      v.U.X.x.qXd.2 O                             |.k.Y U U E g.~././.g./.'.]. X    ",
"    j g       T.Y.S.D.S.=X:X9XqXn.; X =                         (.^.L S D D R g.5.g.g.<.j.(.'.{.    ",
"    = < r.!.Q.K.P.e.e.q.R.qXeX8X3.>.&.I                         ^.U j j F D T 4.5././.U F Y <.'.@X  ",
"    9 a f.Q.K.F.9.{ ..q.A.M.;Xm.J :X;X                          g.V j k z F U E j.{./.U v F I j.XX  ",
"    A $.d.d.t.#.w ; 9 2 q 9 t % & M.8X                          h.b b V z z D Y /.{..X~.l f T 2.j.  ",
"      % y s             O @ + + * }.;XoX                        h.b f B S z L R /.).#X Xl h <.<.D   ",
"                          % % + e n.M.oX                          S 6 h l F E g.k.).<X$X  4.5.Y     ",
"                            X . < m #.s.i.                        S 6 o f z T g.^.{.#X#X    U D     ",
"                            , : x ; - @ / /                       S d o d B U E j.'.$X,X            ",
"                            k H &X>.1 O O.@.+.                      h > > l D W 1.(.@X7X            ",
"                            n H X./ i t p.u.q @.                    l 5 > f z D Y /.@X,X            ",
"                            L z.=.t +.:.:Xp.@ ( ~ -.                l f d d z V U 5.{.%X            ",
"                            T N.:.w r.U.5Xv.# ( $ ^ ^ >.            B h h k j D <.5.'.$X            ",
"                            z.}.+.y o.W.wXB.w ~ $ ( Q ..u.          B l k g j E /.6.(.#X            ",
"                            l.}.8.3.N.-X0XB.q ! $ ^ ^ ..{ s.      D z f h k V Y 5.~.).#X            ",
"                          k.}.M.=Xm M b.*Xx.q ! 2 { { ) [ { p.  S l k j j S B D 5.(.).#X            ",
"                          2.%.n.n.m : r %.M q [ (  . .~ { } s.  V h k B D W D B U /. X#X            ",
"                          g   *.P C c t 0 X w | )  .0.]  .y.d.*.m 5 d z D D D F F g.@X7X            ",
"                                G G m m M * a ;.| 9.C.9. .C.C.$.g 5 5 h B U E U R 5.@X7X            ",
"                                D K G C Z c Z u.;.9.0.w.9.V.F.t.m k h f B U E 4.5./.{.7X            ",
"                                  L G G G n M $.u.S.C.F.w.w.F.y.n V j f v Y 5.g./.). X$X            ",
"                                  V G I G n M =.i.v.T.H.H.J.F.t.y B z k j U 4.4.<.'.$X              ",
"                                M 8 m G J G Z =.*.x.>X4X!.T.J.t.8 4 k V B B U E 6.{.+X              ",
"                                A 7 7 I J I G %.Z o.*X9X4X2XU.a., o 5 j j B B U (.+X                ",
"                                +.w 7 m L P J J Z 7 b.1X0X1X-Xc.7 4 8 5 o k D `.OX                  ",
"                                ' w u u C T P J A y *.:X1X1X-Xc.%.4 f d l h E +X                    ",
"                                p w w u u I P I Z m 7 c.W.T.v.=.J k G E ~.~.~.                      ",
"                                    8 1 ; n K V c 7 & %.r.$.s 3 3 b.m.                              ",
"                                      = O 8   b         y 0 3   o r.1X                              ",
"                                        @ : c                     c.3X                              ",
"                                      y 3 r                       f.Q.                              ",
"                                      7 7                           L.                              ",
"                                  O.i 7                             Z.H.                            ",
"                        3.3.8.:.@.) s                               S.Z.                            ",
"                      7.&.t / ` ` s                                 X.,.                            ",
"                                                                  U 8 N                             ",
"                                                                                                    ",
"                                                                                                    ",
"                                                                                                    ",
"                                                                                                    ",
"                                                                                                    ",
"                                                                                                    "
};
