/* XPM */
static char *_593f283f3ce4685e1591d101e33cea2ZnMv41cUAyhOV7zM[] = {
/* columns rows colors chars-per-pixel */
"50 50 164 2 ",
"   c None",
".  c #0F0A05",
"X  c #120B06",
"o  c #180F06",
"O  c #150E09",
"+  c #1B0E08",
"@  c #1C1206",
"#  c #16110C",
"$  c #1C120A",
"%  c #1B1712",
"&  c #1F1912",
"*  c #1E1D19",
"=  c #231506",
"-  c #2B1607",
";  c #271807",
":  c #2C1A07",
">  c #23150A",
",  c #2A160A",
"<  c #25180C",
"1  c #2C1A0A",
"2  c #301807",
"3  c #331C0B",
"4  c #3B1E0D",
"5  c #251612",
"6  c #221A13",
"7  c #2B1D15",
"8  c #221F1A",
"9  c #2C1E18",
"0  c #341B11",
"q  c #3E1F12",
"w  c #37220B",
"e  c #3B220D",
"r  c #24211D",
"t  c #2C231B",
"y  c #312314",
"u  c #3B2314",
"i  c #3C2914",
"p  c #312518",
"a  c #2E2720",
"s  c #2F2824",
"d  c #322B26",
"f  c #3B2C20",
"g  c #3B3025",
"h  c #36312B",
"j  c #421F0B",
"k  c #43230D",
"l  c #4A250D",
"z  c #4E280E",
"x  c #532307",
"c  c #52250B",
"v  c #582609",
"b  c #542A0E",
"n  c #5C2B0D",
"m  c #452312",
"M  c #4B2711",
"N  c #422B15",
"B  c #4D2913",
"V  c #422F1B",
"C  c #4E2F19",
"Z  c #532A12",
"A  c #5B2D12",
"S  c #512A1B",
"D  c #5E2F18",
"F  c #45311D",
"G  c #5D3114",
"H  c #53331A",
"J  c #5C3219",
"K  c #632D0D",
"L  c #6A2F0B",
"P  c #66300F",
"I  c #6D320E",
"U  c #75340D",
"Y  c #612D10",
"T  c #643214",
"R  c #6B3514",
"E  c #62361B",
"W  c #6D3A1C",
"Q  c #723613",
"!  c #783714",
"~  c #753A15",
"^  c #7C3B15",
"/  c #713B1B",
"(  c #7C3E19",
")  c #4F2F22",
"_  c #463522",
"`  c #4F3622",
"'  c #483926",
"]  c #413229",
"[  c #573F2E",
"{  c #5D3D2A",
"}  c #473735",
"|  c #673620",
" . c #633E27",
".. c #6D3E21",
"X. c #633C2B",
"o. c #763F25",
"O. c #7C421C",
"+. c #6C4127",
"@. c #62422C",
"#. c #724125",
"$. c #724B2F",
"%. c #7C4B2A",
"&. c #6D4233",
"*. c #6D4832",
"=. c #833E16",
"-. c #853F18",
";. c #854117",
":. c #8A4217",
">. c #86421A",
",. c #8B4419",
"<. c #854B1E",
"1. c #8D4D1F",
"2. c #954717",
"3. c #954917",
"4. c #93461A",
"5. c #924A1A",
"6. c #9A4B1B",
"7. c #A24D1C",
"8. c #A4511B",
"9. c #AC541C",
"0. c #B45A1C",
"q. c #B85D1E",
"w. c #BE621E",
"e. c #814523",
"r. c #854926",
"t. c #8D4E23",
"y. c #82492A",
"u. c #8D4F28",
"i. c #8F5124",
"p. c #8E5229",
"a. c #955127",
"s. c #9D5523",
"d. c #9F5827",
"f. c #9A572E",
"g. c #9C582B",
"h. c #874C31",
"j. c #815336",
"k. c #A15523",
"l. c #AC5622",
"z. c #B35A21",
"x. c #B55C2D",
"c. c #AB622C",
"v. c #BD6120",
"b. c #BE672A",
"n. c #B76D34",
"m. c #B1603C",
"M. c #C4671F",
"N. c #C16320",
"B. c #C46926",
"V. c #CC7231",
"C. c #C57C3F",
"Z. c #CF7C38",
"A. c #D37D3F",
"S. c #8D5E45",
"D. c #9A6544",
"F. c #A86B44",
"G. c #B1775E",
"H. c #CD8A4B",
"J. c #D3834E",
"K. c #DA8D48",
"L. c #CA8055",
"P. c #CF955A",
"I. c #DB9454",
"U. c #D69660",
/* pixels */
"                                                                                                    ",
"                                                                                                    ",
"                                                                                                    ",
"                                                                                                    ",
"                                                                                                    ",
"                                                                                                    ",
"                                      d 9                                                           ",
"                                      6 # t                                                         ",
"                                    t $                                                             ",
"                                  a 8                                                               ",
"                                a 8                           $.j.D.                                ",
"                                * &                 { +.E p.W O.u.f.F.                              ",
"                                  % r         ` #.+.W E T i.i.( -.u.e.y.S.                          ",
"                                  8 O f +.N J Z O.R O.>.t.1.-.! R R ! y.h.                          ",
"                                  ] 7 M R n K K O.O.R ,.Q ;.>.a.R Y Y E o.X.                        ",
"                                  C A l P L 3.3.L L U U ! ! Q O.! ! A m ) )                         ",
"                              J W O.,.P s.K ^ 0.:.K 5.,.R ~ O.K j Z c q q 9                         ",
"                          @.+.O.b <.8.n a.5.x L L x b ;.c l l n A m m 0 5                           ",
"                        *.+.I c.1.c P n n P L 5.U I c c n Y c A E | 5 5 }                           ",
"                      { E z k O.,.U R R k.K Y t.s.v c Q A Y D Z u q + &.G.                          ",
"                    @.J G k l l c 1.s.A O.c E ( Y l j 4 j j D , + O M m.L.                          ",
"                  [ H l v j O.c.G T ^ j : 4 4 m m j m c q , 0 , X l 4.x.J.                          ",
"                  i w k O.v Z k.~ w e k l m / 2 , m 0 0 , + X O l 3.9.z.A.U.                        ",
"                f 1 M , l k @ k z z Z 3 A 2 B q 0 , > X X X + M 3.9.0.q.V.I.                        ",
"              a < < Z - @ = $ + , , 0 $ , $ o + + X X X X $ n 6.9.q.M.w.B.K.                        ",
"              r 5 ; , ; 2 = , q , m > O X X . X X + + + $ Z 3.8.q.N.M.w.q.Z.P.                      ",
"              a 6 > @ @ , = o > O + + . X O # @ + + $ > k ;.3.9.q.q.N.N.0.B.H.                      ",
"              d > $ @ X > + X X X O O O + o $ $ , , j A ~ :.2.6.9.q.z.z.9.l.C.                      ",
"                % O O X X X . . O O % + $ > = ; : k T ~ ^ >.,.2.7.8.l.l.7.5.n.                      ",
"                a O X . . # # # % $ > > ; ; ; 3 z T R Q ~ ;.>.:.4.6.7.9.4.:.c.                      ",
"                  & O # * & 6 6 < ; , : < 1 3 l G G T W W Q ^ -.-.4.6.6.4.^ g.                      ",
"                        h t 9 6 < , : 3 1 w k B A A A Y R R Q ~ ^ -.4.4.-.! p.                      ",
"                          g p y 1 : w 1 w w m l Z Z A A G T R W Q ^ -.,.O.R %.                      ",
"                            g u w w : w w e e e M B B Z A G T T R Q =.-.~ R %.                      ",
"                              F e w 3 3 3 w 3 e e l l B B A G G R R Q ^ R T %.                      ",
"                              ' V e : : 1 1 3 w e k M M l b n n A K T R G J $.                      ",
"                                ' i w : , 1 1 w w w k k l z c b b n n n b J                         ",
"                                  F i w 1 ; 1 1 1 1 4 e k k l l l z b l z H                         ",
"                                    F e 1 ; ; ; 1 , 1 w e k k k k k k k e H                         ",
"                                      F e : = = ; > , : 3 3 3 3 3 3 4 3 i                           ",
"                                        i w ; = @ = = = ; : : ; ; 1 ; 1 i                           ",
"                                          i 1 = = @ @ @ @ @ = = @ @ @ y                             ",
"                                            p 7 = @ @ o @ o @ o @ @ $                               ",
"                                                < & & ; $ @ @ @ @ # &                               ",
"                                                                # #                                 ",
"                                                                                                    ",
"                                                                                                    ",
"                                                                                                    ",
"                                                                                                    ",
"                                                                                                    "
};
