/* XPM */
static char *de65754aec2244c6f71f5fb9496247ca4gZBal6Yv0AjIDZP[] = {
/* columns rows colors chars-per-pixel */
"50 50 198 2 ",
"   c #7E2927",
".  c #7D2A28",
"X  c #BD1E16",
"o  c #B61F19",
"O  c #BB1E19",
"+  c #9B251F",
"@  c #9D2C1F",
"#  c #A5241E",
"$  c #AC241D",
"%  c #A42A1E",
"&  c #AC291E",
"*  c #BE2217",
"=  c #B42C16",
"-  c #B4231C",
";  c #BC231A",
":  c #B4291C",
">  c #BB291B",
",  c #8D2724",
"<  c #842926",
"1  c #8B2925",
"2  c #832A28",
"3  c #932724",
"4  c #9C2622",
"5  c #942923",
"6  c #9B2922",
"7  c #A32521",
"8  c #AB2522",
"9  c #A32921",
"0  c #AA2A21",
"q  c #B42421",
"w  c #BA2520",
"e  c #B32A20",
"r  c #DB160F",
"t  c #D61D0F",
"y  c #DB1C0E",
"u  c #C41E16",
"i  c #CC1D14",
"p  c #C11E1A",
"a  c #D71710",
"s  c #D31C11",
"d  c #DA1D10",
"f  c #E0140E",
"g  c #E21C0D",
"h  c #D4240F",
"j  c #DC220E",
"k  c #D62D0F",
"l  c #DC2B0E",
"z  c #DF310C",
"x  c #C42316",
"c  c #CC2415",
"v  c #C42915",
"b  c #CC2A16",
"n  c #C32419",
"m  c #CB241B",
"M  c #C22A19",
"N  c #D32313",
"B  c #DB2311",
"V  c #D32B13",
"C  c #DB2B12",
"Z  c #D32719",
"A  c #D33316",
"S  c #DB3415",
"D  c #DA3D13",
"F  c #E62F07",
"G  c #ED2B07",
"H  c #E4230C",
"J  c #E92609",
"K  c #E42C0D",
"L  c #E92C0A",
"P  c #EC3307",
"I  c #ED3C07",
"U  c #E5330D",
"Y  c #EB330B",
"T  c #E73B0C",
"R  c #EC3B0B",
"E  c #F73302",
"W  c #F23C06",
"Q  c #F03509",
"!  c #F13C09",
"~  c #E22210",
"^  c #E22C11",
"/  c #E43411",
"(  c #E53C12",
")  c #E93E10",
"_  c #DE4515",
"`  c #DE4919",
"'  c #EF4307",
"]  c #E6410D",
"[  c #ED440C",
"{  c #EC4B0D",
"}  c #F54306",
"|  c #F64A06",
" . c #F94D06",
".. c #F2440A",
"X. c #F34C0C",
"o. c #F84F08",
"O. c #EE5307",
"+. c #ED530B",
"@. c #ED5D0D",
"#. c #F75107",
"$. c #FA5206",
"%. c #F15E07",
"&. c #FB5C06",
"*. c #F4530C",
"=. c #F7560D",
"-. c #F95509",
";. c #F45B0C",
":. c #F65B0E",
">. c #FB5D0A",
",. c #FA5E0A",
"<. c #F85F0C",
"1. c #E54415",
"2. c #EB4412",
"3. c #EC4714",
"4. c #E44C17",
"5. c #EB4B13",
"6. c #EC4812",
"7. c #F04D11",
"8. c #F24F10",
"9. c #EC5414",
"0. c #EC5C19",
"q. c #F15210",
"w. c #F35B12",
"e. c #FB6206",
"r. c #FE6B06",
"t. c #F4640E",
"y. c #FB600A",
"u. c #FC620B",
"i. c #FA640C",
"p. c #FA660D",
"a. c #F76B0F",
"s. c #FB6B0E",
"d. c #FB6C0C",
"f. c #F4710F",
"g. c #FD730D",
"h. c #FE7A0D",
"j. c #FD790E",
"k. c #E76117",
"l. c #ED6D14",
"z. c #EB631B",
"x. c #ED6D1E",
"c. c #F46312",
"v. c #FA6511",
"b. c #F46B14",
"n. c #FB6C10",
"m. c #FA6C12",
"M. c #FA6D12",
"N. c #FB6F15",
"B. c #F0661B",
"V. c #F26819",
"C. c #EF7313",
"Z. c #EE781C",
"A. c #F57414",
"S. c #FC7310",
"D. c #FB7413",
"F. c #F57B15",
"G. c #FE7910",
"H. c #FC7C12",
"J. c #F4741A",
"K. c #F67C1C",
"L. c #FA7D19",
"P. c #F17720",
"I. c #F37E23",
"U. c #FF810E",
"Y. c #FF840F",
"T. c #F58315",
"R. c #FD8413",
"E. c #FE8813",
"W. c #FE8914",
"Q. c #FE8C15",
"!. c #FF8C15",
"~. c #F6831F",
"^. c #FB8219",
"/. c #F68C1D",
"(. c #FE8E19",
"). c #FD8C1A",
"_. c #FE9116",
"`. c #F69318",
"'. c #FD931B",
"]. c #FF9619",
"[. c #FE9B1C",
"{. c #FFA41E",
"}. c #FFA81D",
"|. c #F58222",
" X c #F88622",
".X c #F68B26",
"XX c #FC9422",
"oX c #FC9B23",
"OX c #FEA422",
"+X c #FEAB23",
"@X c #FEAB2A",
"#X c #FFB324",
"$X c #FFBA27",
"%X c #FEB32C",
"&X c #FFBA2C",
"*X c #FFC42D",
"=X c #FFC92F",
"-X c #FFCF32",
/* pixels */
"1 1 < , < , 3 # * m c N Y m.).b.5.( ^ B / R ..v.H.,.q.8...! 7.<.m.H.).].'.s...J B m : 6 1 2   < < 1 ",
"1 < , < , , 4 $ p c N H 7.H.v.T C N N N ^ U T ,.s.Y J L / / / Y ..m.R.'.E.s.R H Z n : 6 <         < ",
"< < < 1 1 3 # - x s j Y >.:.T N u p x Z ^ K R >.Q g ~ Z Z m Z B J ! m.Q.Q.g...H N M & 6 < < . .     ",
"< < , , 3 # $ x i B K =.u...C ; $ $ : c K L -...g ~ m n w w n m B L X.m.E.Y.-.J s M : 4 1 <         ",
"< 1 , 4 4 $ - x N ^ 7.m.:.K u # 4 4 - c H ..u.L ~ Z w 8 9 9 8 q m ~ K =.h.Y.g.! y c > # 6 , , <   < ",
", 3 6 9 $ o O c ^ 3.N.m.[ N $ 3 3 5 $ c K <...g s w 8 6 5 5 6 8 w i ~ Y -.h.Y.,.K s x > 8 6 5 , 1 1 ",
"4 7 # - - * i C 2.V.S.X.K ; + , , 4 - h R p.Y j p 7 3 1 , 3 3 7 8 p i H K X.m.D. .J d m > & 9 6 5 5 ",
"0 $ - ; p i B 3.b.m.*.K s $ 3 , 3 + ; j q.v.J N 8 3 1 2 < < 3 3 7 q p i d H 3.N.d.W g d m > e 0 # % ",
"- - ; x s H 5.N.D.*.K s X + 3 , 3 $ u K c.=.H x 0 1 <     < 5 3 3 7 8 w m r ~ =.g.>.! H y m M : : $ ",
"n x c d H ..D.H.q.K d u # 3 , 3 4 O i ^ c.w.L c 0 5 < <   < , 3 3 4 7 8 p m ~ ) H.).D.X.R ^ N m ; ; ",
"j K L R p.^.R.*.H t u $ 4 1 1 , # O s H c.v.G C M 9 , < 2 2 3 3 3 3 3 7 w m f / L.@X@XXXL.w.R K C N ",
"X.-.p.).OX[.b.R j i $ 4 3 <   1 4 O s ~ X.m.! K b - 4 , 2 1 3 4 6 3 3 4 q p Z H A.OX@XoX).D.>.$.| -.",
"p.g.'.@X%XXXw.T h * # 3 < < 2 < 3 $ i a ) m.$.G ~ p q 7 3 , 3 4 4 4 4 7 q m j U D.[.).m.&. .| | *.-.",
"T X.A.XXOX).w.U C * # 5 < <   < , 8 p s K t.m.W L d p w 8 7 7 8 8 8 8 q p B Y #.H.).g.$.I z k h U U ",
"h j U w.^.'.c.U h x $ 6 , < < < 3 8 u s j +.T.t.! ^ Z m m w q w w w x c C 2.;.g.Y.Y.&.W k ; $ # - x ",
"u i r y 5.).~.2.y t * $ 4 6 3 3 7 - i N l @.`.Q.>.! ^ Z Z s m m Z S 1.0.V.D.A.g.g.d.-.I h - 4 3 + # ",
"o u s r L J.`.J.K r s i - - $ - O i s K ' F.OX{.T.t.I U U / / 1.9.w.c.l.b.c.+.' ' >.*.I C - + 3 4 4 ",
"X i a y U c.[.XXw.g r y a i i i B K ..O.A._.@X%XOXQ.i.*.*.w.b.J.J.;.+.T z h N j H =.i...z x $ + 4 $ ",
"j K U 5.t.h.OX@XXXw.P K ^ K z T { O.@.f.F.F._.+X%X+X[.).'.[.'.H.;.T j c * - X u d X.H.>.R z x x x c ",
"5.w.b.A.F.Q.[.@X%XXXJ.A.J.@.O.O.{ ' T T T I *.R.+X&X*X$X#X}.].c.I h x $ 4 4 # X s ..XXoXF.;.{ ' I ' ",
"X.X.2.5.{ +.c.XX@X[.L.D.a.%.' R l j s s s y J #.[.$X=X=X*X$X[.t.z i - + 3 3 + - B X.oX%XoXK.v.:.X...",
"H H H C V V D J.oX).r.{ P l N s i X O * X i h W h.+X=X=X-X=X+XF.I N ; # # # X i K b.).L.c.5.T ^ H f ",
"t r i ; > x b 9././.O.K t x X - # # # # - ; h I h.}.*X=X*X*X#X[.a.' h x ; u h g 2.D.m.[ U l N i i s ",
"u * $ 9 & > v D Z./.c.U t X $ # + , 5 6 $ ; h ' h.}.}.}.[.[.[.[._.g.O.I l l L R :.m.7./ C b n w ; * ",
"; # 4 , @ = > V 5.~.J.T j x & % + 1 1 + $ x k [ R.[.!.Y.j.g.g.h.R._.R.A.;.-.y.h.g.-.2.D b M : - w ; ",
"$ + + 3 + $ n c / V.L.[ H h * % 1 1 2 + = c z #.Y.Y.&.} W W } -.i.H.!._._.Q._.!.u.7.( V M : 8 & $ $ ",
"+ + + + + # ; x j 5.K.m.F H x # 1 1 1 + # c U ;.T.;.K H y l K I { a.L.[.+X+X{.R.-.) A x : 0 6 5 5 4 ",
", 3 , , , + $ x d ^ z.^. .H h - @ 1 1 + & x K a.T.T N x * x x k ' t.R.{.#X+X{.R...^ Z > 9 5 , 1 < 1 ",
"< , < < < , # X s y ( J.m.L t ; % + 2 5 & c U J.J.S M % % % : b ] t.).{.}.{.{.R. .J N ; 7 5 < 2 < < ",
"<         , + $ u r ~ 9.D.P y x % 1 2 1 % x ( |.z.V : 6 5 5 : V +.h.'.[.{._.Q.R.u.Y j c e 3 < 2     ",
"< <     , , 3 # O i r ( m.X.g s = @ 5 5 6 x 4.|.0.b : 6 5 % > D C.T.Y.T.F.t.;.g.d...H a n 7 , < 2 < ",
"< , < , , , 3 + $ u a ^ c.v.L t * @ 5 5 0 v 0.I.9.k > & $ > D l.T.C.@.+.] F F ' &. .L g s : 6 5 1 < ",
"< , , , 3 3 , 3 7 o u a 5.S.R g c $ 4 % - A x.I.5.C * * b ` l.T.C.] F K B y y H ' &.Q g f i - 6 5 1 ",
", , , 3 3 3 3 , 3 8 X a T S.-.J t ; # - M ` |.K.{ C A _ k.C.C.@.T j y h s s s r H |  .J f B x $ 4 5 ",
"6 6 4 3 3 , , , 3 + O i K a.s.P j i * x A 0..X.XV.k.x.Z.F.t.' L y s i * O u u s r F $.W g f B m - & ",
": 0 8 4 4 4 3 , 4 4 o i H p.h.} H s i N _ J.XX.X~.~.K.b.+.F H y s X o 7 7 q O u t y W &.} H f B b ; ",
"b M > - $ # + 4 7 $ O s H s.R.#.H y h S 0. XXXL.b.9.[ U H y s i O # + 3 , , 8 O i d J #.s.} g g C Z ",
"N Z N c X o o o o X i a K h.Q.-.G H C 5.J.L.c.[ U K j j i x O - # 4 , 2 . , 3 8 * N y R d.d.! H H B ",
"H H j j s i i s i a y J -.'.{.u.E Y 3.b.D.q.U l C N c n * $ # 4 3 , 2   . 2 , 4 ; m y H =.R.L.7.H ~ ",
"L U J g g g g g H J Y -.R.+X+XR. .w.J.m.X.K C b M M > : 6 5 5 < 2     . . 2 , 8 ; i N g ! H.OX[.i.R ",
"d.&.$.} } } } } | -.u.R.{.%X&XOX).^.H.X.K b M > e 0 @ 5 , 2 2 . . .     < , 3 $ * i s J R L.%X%X[.R.",
"d.d.e.>.&.&.&.&.&.e.s.h._.+X&X&XOXR.-.K h * % 9 @ 5 5 1 2 . . . . . . 2 , + # O u i y L X.'.@X@X).H.",
"Y P K Y Y Y L L L G P Q | d.OX%X[.d.P l x - @ @ 5 5 1 2 2 . . . . 2 , , + $ O u i d ~ Y p.R.).D...R ",
"N N c c N N c N N C C j H R a.{.'.#.J y c & 6 5 5 @ 5 1 2 2 2 1 , , 4 # o u i a r g Y &.r.&...L H j ",
"; * O ; ; v x c c n b c N H X.Q.'.y.J g h = = @ @ @ @ 5 < , 5 3 7 8 $ O u t r y J } e.&.} L H h c n ",
"8 - $ 8 # & : - : : > n b C R R.[.d.W H H h v = @ @ @ @ 4 4 7 $ q p u a r y J R &.r.| G H h c n - - ",
"4 7 4 4 5 5 5 6 9 & : M b N ! R.+X'.r.$.} F h v = = @ % $ ; n i s d a g L Y } &.r.} H y N n > & 9 9 ",
"3 3 3 , 1 < 1 , 6 9 : M c B | Q.&X%X}.E.h.&.I l i X X x i s B H B ~ Y Y X.:.r.e.} H y N x = % 4 5 5 ",
", 1 1 < < < , , @ & ; n N Y >.[.&X%XoXF.d.g.g.:.' U C K K Y / R [ X.*.t.h.h.s.| J B N M : 6 5 5 5 1 ",
"1 < 1 < < < 1 4 & ; b m C ..H.{.XXK.c.q.X.=.d.H.h.b.t.*.=.:.>.w.m.H.R.E._.H.-.Y ~ B n 8 5 1 < < 1 1 "
};
